<mxfile host="app.diagrams.net" modified="2022-11-15T08:49:17.898Z" agent="5.0 (X11; Linux x86_64) AppleWebKit/537.36 (KHTML, like Gecko) Chrome/107.0.0.0 Safari/537.36" etag="H4ksdJpsDvf-ERC26okV" version="20.5.3" type="github">
  <diagram id="9AL0e-qM06q9D_0BJLEs" name="Page-1">
    <mxGraphModel dx="1871" dy="1806" grid="0" gridSize="5" guides="1" tooltips="1" connect="1" arrows="1" fold="1" page="1" pageScale="1" pageWidth="1169" pageHeight="827" math="0" shadow="0">
      <root>
        <mxCell id="0" />
        <mxCell id="1" parent="0" />
        <mxCell id="-ZI4lZYVpN0cs_xHT9L2-34" value="Public subnet" style="points=[[0,0],[0.25,0],[0.5,0],[0.75,0],[1,0],[1,0.25],[1,0.5],[1,0.75],[1,1],[0.75,1],[0.5,1],[0.25,1],[0,1],[0,0.75],[0,0.5],[0,0.25]];outlineConnect=0;gradientColor=none;html=1;whiteSpace=wrap;fontSize=12;fontStyle=0;container=1;pointerEvents=0;collapsible=0;recursiveResize=0;shape=mxgraph.aws4.group;grIcon=mxgraph.aws4.group_security_group;grStroke=0;strokeColor=#248814;fillColor=#E9F3E6;verticalAlign=top;align=left;spacingLeft=30;fontColor=#248814;dashed=0;" parent="1" vertex="1">
          <mxGeometry x="680" y="260" width="280" height="120" as="geometry" />
        </mxCell>
        <mxCell id="-ZI4lZYVpN0cs_xHT9L2-41" value="Availability Zone" style="fillColor=none;strokeColor=#147EBA;dashed=1;verticalAlign=top;fontStyle=0;fontColor=#147EBA;" parent="1" vertex="1">
          <mxGeometry x="660" y="160" width="340" height="480" as="geometry" />
        </mxCell>
        <mxCell id="-ZI4lZYVpN0cs_xHT9L2-46" value="Region" style="points=[[0,0],[0.25,0],[0.5,0],[0.75,0],[1,0],[1,0.25],[1,0.5],[1,0.75],[1,1],[0.75,1],[0.5,1],[0.25,1],[0,1],[0,0.75],[0,0.5],[0,0.25]];outlineConnect=0;gradientColor=none;html=1;whiteSpace=wrap;fontSize=12;fontStyle=0;container=1;pointerEvents=0;collapsible=0;recursiveResize=0;shape=mxgraph.aws4.group;grIcon=mxgraph.aws4.group_region;strokeColor=#147EBA;fillColor=none;verticalAlign=top;align=left;spacingLeft=30;fontColor=#147EBA;dashed=1;" parent="1" vertex="1">
          <mxGeometry x="140" y="-20" width="920" height="800" as="geometry" />
        </mxCell>
        <mxCell id="-ZI4lZYVpN0cs_xHT9L2-29" value="" style="sketch=0;points=[[0,0,0],[0.25,0,0],[0.5,0,0],[0.75,0,0],[1,0,0],[0,1,0],[0.25,1,0],[0.5,1,0],[0.75,1,0],[1,1,0],[0,0.25,0],[0,0.5,0],[0,0.75,0],[1,0.25,0],[1,0.5,0],[1,0.75,0]];outlineConnect=0;fontColor=#232F3E;gradientColor=#60A337;gradientDirection=north;fillColor=#277116;strokeColor=#ffffff;dashed=0;verticalLabelPosition=bottom;verticalAlign=top;align=center;html=1;fontSize=12;fontStyle=0;aspect=fixed;shape=mxgraph.aws4.resourceIcon;resIcon=mxgraph.aws4.s3;" parent="-ZI4lZYVpN0cs_xHT9L2-46" vertex="1">
          <mxGeometry x="265" y="20" width="78" height="78" as="geometry" />
        </mxCell>
        <mxCell id="hgUZep3pFWAY9zPGNiMS-4" value="" style="endArrow=classic;html=1;rounded=0;entryX=1;entryY=0.5;entryDx=0;entryDy=0;entryPerimeter=0;" edge="1" parent="-ZI4lZYVpN0cs_xHT9L2-46" target="-ZI4lZYVpN0cs_xHT9L2-29">
          <mxGeometry width="50" height="50" relative="1" as="geometry">
            <mxPoint x="445" y="60" as="sourcePoint" />
            <mxPoint x="435" y="55" as="targetPoint" />
          </mxGeometry>
        </mxCell>
        <mxCell id="-ZI4lZYVpN0cs_xHT9L2-32" value="S3" style="text;html=1;strokeColor=none;fillColor=none;align=center;verticalAlign=middle;whiteSpace=wrap;rounded=0;" parent="-ZI4lZYVpN0cs_xHT9L2-46" vertex="1">
          <mxGeometry x="274" y="-5" width="60" height="30" as="geometry" />
        </mxCell>
        <mxCell id="-ZI4lZYVpN0cs_xHT9L2-3" value="" style="sketch=0;outlineConnect=0;fontColor=#232F3E;gradientColor=none;fillColor=#4D27AA;strokeColor=none;dashed=0;verticalLabelPosition=bottom;verticalAlign=top;align=center;html=1;fontSize=12;fontStyle=0;aspect=fixed;pointerEvents=1;shape=mxgraph.aws4.internet_gateway;" parent="-ZI4lZYVpN0cs_xHT9L2-46" vertex="1">
          <mxGeometry x="405" y="160" width="78" height="78" as="geometry" />
        </mxCell>
        <mxCell id="-ZI4lZYVpN0cs_xHT9L2-26" value="IGW" style="text;html=1;strokeColor=none;fillColor=none;align=center;verticalAlign=middle;whiteSpace=wrap;rounded=0;" parent="-ZI4lZYVpN0cs_xHT9L2-46" vertex="1">
          <mxGeometry x="470" y="150" width="60" height="30" as="geometry" />
        </mxCell>
        <mxCell id="-ZI4lZYVpN0cs_xHT9L2-13" value="" style="endArrow=classic;html=1;rounded=0;" parent="-ZI4lZYVpN0cs_xHT9L2-46" edge="1" target="-ZI4lZYVpN0cs_xHT9L2-2">
          <mxGeometry width="50" height="50" relative="1" as="geometry">
            <mxPoint x="443.6600000000001" y="238" as="sourcePoint" />
            <mxPoint x="443.6600000000001" y="293" as="targetPoint" />
            <Array as="points">
              <mxPoint x="443.6600000000001" y="258" />
            </Array>
          </mxGeometry>
        </mxCell>
        <mxCell id="-ZI4lZYVpN0cs_xHT9L2-24" value="ALB" style="text;html=1;strokeColor=none;fillColor=none;align=center;verticalAlign=middle;whiteSpace=wrap;rounded=0;" parent="-ZI4lZYVpN0cs_xHT9L2-46" vertex="1">
          <mxGeometry x="470" y="275" width="60" height="30" as="geometry" />
        </mxCell>
        <mxCell id="-ZI4lZYVpN0cs_xHT9L2-33" value="Public subnet" style="points=[[0,0],[0.25,0],[0.5,0],[0.75,0],[1,0],[1,0.25],[1,0.5],[1,0.75],[1,1],[0.75,1],[0.5,1],[0.25,1],[0,1],[0,0.75],[0,0.5],[0,0.25]];outlineConnect=0;gradientColor=none;html=1;whiteSpace=wrap;fontSize=12;fontStyle=0;container=1;pointerEvents=0;collapsible=0;recursiveResize=0;shape=mxgraph.aws4.group;grIcon=mxgraph.aws4.group_security_group;grStroke=0;strokeColor=#248814;fillColor=#E9F3E6;verticalAlign=top;align=left;spacingLeft=30;fontColor=#248814;dashed=0;" parent="-ZI4lZYVpN0cs_xHT9L2-46" vertex="1">
          <mxGeometry x="85" y="280" width="280" height="120" as="geometry" />
        </mxCell>
        <mxCell id="hgUZep3pFWAY9zPGNiMS-9" value="" style="sketch=0;outlineConnect=0;fontColor=#232F3E;gradientColor=none;fillColor=#4D27AA;strokeColor=none;dashed=0;verticalLabelPosition=bottom;verticalAlign=top;align=center;html=1;fontSize=12;fontStyle=0;aspect=fixed;pointerEvents=1;shape=mxgraph.aws4.nat_gateway;rotation=90;" vertex="1" parent="-ZI4lZYVpN0cs_xHT9L2-33">
          <mxGeometry x="40" y="21" width="78" height="78" as="geometry" />
        </mxCell>
        <mxCell id="-ZI4lZYVpN0cs_xHT9L2-2" value="" style="sketch=0;outlineConnect=0;fontColor=#232F3E;gradientColor=none;fillColor=#4D27AA;strokeColor=none;dashed=0;verticalLabelPosition=bottom;verticalAlign=top;align=center;html=1;fontSize=12;fontStyle=0;aspect=fixed;pointerEvents=1;shape=mxgraph.aws4.application_load_balancer;" parent="-ZI4lZYVpN0cs_xHT9L2-46" vertex="1">
          <mxGeometry x="406" y="312" width="78" height="78" as="geometry" />
        </mxCell>
        <mxCell id="-ZI4lZYVpN0cs_xHT9L2-5" value="" style="sketch=0;points=[[0,0,0],[0.25,0,0],[0.5,0,0],[0.75,0,0],[1,0,0],[0,1,0],[0.25,1,0],[0.5,1,0],[0.75,1,0],[1,1,0],[0,0.25,0],[0,0.5,0],[0,0.75,0],[1,0.25,0],[1,0.5,0],[1,0.75,0]];outlineConnect=0;fontColor=#232F3E;gradientColor=#F78E04;gradientDirection=north;fillColor=#D05C17;strokeColor=#ffffff;dashed=0;verticalLabelPosition=bottom;verticalAlign=top;align=center;html=1;fontSize=12;fontStyle=0;aspect=fixed;shape=mxgraph.aws4.resourceIcon;resIcon=mxgraph.aws4.ec2;" parent="-ZI4lZYVpN0cs_xHT9L2-46" vertex="1">
          <mxGeometry x="555" y="301" width="78" height="78" as="geometry" />
        </mxCell>
        <mxCell id="hgUZep3pFWAY9zPGNiMS-11" value="" style="endArrow=classic;html=1;rounded=0;exitX=-0.013;exitY=0.5;exitDx=0;exitDy=0;exitPerimeter=0;edgeStyle=orthogonalEdgeStyle;entryX=-0.013;entryY=0.513;entryDx=0;entryDy=0;entryPerimeter=0;" edge="1" parent="-ZI4lZYVpN0cs_xHT9L2-46" source="hgUZep3pFWAY9zPGNiMS-9" target="-ZI4lZYVpN0cs_xHT9L2-3">
          <mxGeometry width="50" height="50" relative="1" as="geometry">
            <mxPoint x="170" y="270" as="sourcePoint" />
            <mxPoint x="220" y="220" as="targetPoint" />
          </mxGeometry>
        </mxCell>
        <mxCell id="hgUZep3pFWAY9zPGNiMS-10" value="" style="sketch=0;outlineConnect=0;fontColor=#232F3E;gradientColor=none;fillColor=#4D27AA;strokeColor=none;dashed=0;verticalLabelPosition=bottom;verticalAlign=top;align=center;html=1;fontSize=12;fontStyle=0;aspect=fixed;pointerEvents=1;shape=mxgraph.aws4.nat_gateway;rotation=90;" vertex="1" parent="-ZI4lZYVpN0cs_xHT9L2-46">
          <mxGeometry x="705" y="301" width="78" height="78" as="geometry" />
        </mxCell>
        <mxCell id="hgUZep3pFWAY9zPGNiMS-14" value="" style="endArrow=classic;html=1;rounded=0;edgeStyle=elbowEdgeStyle;exitX=-0.013;exitY=0.5;exitDx=0;exitDy=0;exitPerimeter=0;" edge="1" parent="-ZI4lZYVpN0cs_xHT9L2-46" source="hgUZep3pFWAY9zPGNiMS-10" target="-ZI4lZYVpN0cs_xHT9L2-3">
          <mxGeometry width="50" height="50" relative="1" as="geometry">
            <mxPoint x="745" y="245" as="sourcePoint" />
            <mxPoint x="795" y="195" as="targetPoint" />
            <Array as="points">
              <mxPoint x="744" y="250" />
            </Array>
          </mxGeometry>
        </mxCell>
        <mxCell id="-ZI4lZYVpN0cs_xHT9L2-28" value="Auto Scaling group" style="points=[[0,0],[0.25,0],[0.5,0],[0.75,0],[1,0],[1,0.25],[1,0.5],[1,0.75],[1,1],[0.75,1],[0.5,1],[0.25,1],[0,1],[0,0.75],[0,0.5],[0,0.25]];outlineConnect=0;gradientColor=none;html=1;whiteSpace=wrap;fontSize=12;fontStyle=0;container=0;pointerEvents=0;collapsible=0;recursiveResize=0;shape=mxgraph.aws4.groupCenter;grIcon=mxgraph.aws4.group_auto_scaling_group;grStroke=1;strokeColor=#D86613;fillColor=none;verticalAlign=top;align=center;fontColor=#D86613;dashed=1;spacingTop=25;" parent="-ZI4lZYVpN0cs_xHT9L2-46" vertex="1">
          <mxGeometry x="245" y="260" width="400" height="160" as="geometry" />
        </mxCell>
        <mxCell id="-ZI4lZYVpN0cs_xHT9L2-38" value="Private subnet" style="points=[[0,0],[0.25,0],[0.5,0],[0.75,0],[1,0],[1,0.25],[1,0.5],[1,0.75],[1,1],[0.75,1],[0.5,1],[0.25,1],[0,1],[0,0.75],[0,0.5],[0,0.25]];outlineConnect=0;gradientColor=none;html=1;whiteSpace=wrap;fontSize=12;fontStyle=0;container=1;pointerEvents=0;collapsible=0;recursiveResize=0;shape=mxgraph.aws4.group;grIcon=mxgraph.aws4.group_security_group;grStroke=0;strokeColor=#147EBA;fillColor=#E6F2F8;verticalAlign=top;align=left;spacingLeft=30;fontColor=#147EBA;dashed=0;" parent="-ZI4lZYVpN0cs_xHT9L2-46" vertex="1">
          <mxGeometry x="85" y="480" width="280" height="140" as="geometry" />
        </mxCell>
        <mxCell id="hgUZep3pFWAY9zPGNiMS-16" value="" style="sketch=0;points=[[0,0,0],[0.25,0,0],[0.5,0,0],[0.75,0,0],[1,0,0],[0,1,0],[0.25,1,0],[0.5,1,0],[0.75,1,0],[1,1,0],[0,0.25,0],[0,0.5,0],[0,0.75,0],[1,0.25,0],[1,0.5,0],[1,0.75,0]];outlineConnect=0;fontColor=#232F3E;gradientColor=#F78E04;gradientDirection=north;fillColor=#D05C17;strokeColor=#ffffff;dashed=0;verticalLabelPosition=bottom;verticalAlign=top;align=center;html=1;fontSize=12;fontStyle=0;aspect=fixed;shape=mxgraph.aws4.resourceIcon;resIcon=mxgraph.aws4.ec2;" vertex="1" parent="-ZI4lZYVpN0cs_xHT9L2-38">
          <mxGeometry x="101" y="40" width="78" height="78" as="geometry" />
        </mxCell>
        <mxCell id="hgUZep3pFWAY9zPGNiMS-18" value="Auto Scaling group" style="points=[[0,0],[0.25,0],[0.5,0],[0.75,0],[1,0],[1,0.25],[1,0.5],[1,0.75],[1,1],[0.75,1],[0.5,1],[0.25,1],[0,1],[0,0.75],[0,0.5],[0,0.25]];outlineConnect=0;gradientColor=none;html=1;whiteSpace=wrap;fontSize=12;fontStyle=0;container=1;pointerEvents=0;collapsible=0;recursiveResize=0;shape=mxgraph.aws4.groupCenter;grIcon=mxgraph.aws4.group_auto_scaling_group;grStroke=1;strokeColor=#D86613;fillColor=none;verticalAlign=top;align=center;fontColor=#D86613;dashed=1;spacingTop=25;" vertex="1" parent="-ZI4lZYVpN0cs_xHT9L2-46">
          <mxGeometry x="64" y="460" width="760" height="180" as="geometry" />
        </mxCell>
        <mxCell id="hgUZep3pFWAY9zPGNiMS-21" value="ec2" style="text;html=1;strokeColor=none;fillColor=none;align=center;verticalAlign=middle;whiteSpace=wrap;rounded=0;" vertex="1" parent="hgUZep3pFWAY9zPGNiMS-18">
          <mxGeometry x="101" y="138" width="60" height="30" as="geometry" />
        </mxCell>
        <mxCell id="hgUZep3pFWAY9zPGNiMS-20" value="" style="endArrow=none;html=1;rounded=0;" edge="1" parent="-ZI4lZYVpN0cs_xHT9L2-46" target="-ZI4lZYVpN0cs_xHT9L2-2">
          <mxGeometry width="50" height="50" relative="1" as="geometry">
            <mxPoint x="445" y="560" as="sourcePoint" />
            <mxPoint x="480" y="455" as="targetPoint" />
          </mxGeometry>
        </mxCell>
        <mxCell id="hgUZep3pFWAY9zPGNiMS-23" value="" style="endArrow=classic;html=1;rounded=0;exitX=0.5;exitY=0;exitDx=0;exitDy=0;exitPerimeter=0;edgeStyle=orthogonalEdgeStyle;" edge="1" parent="-ZI4lZYVpN0cs_xHT9L2-46" source="hgUZep3pFWAY9zPGNiMS-16" target="hgUZep3pFWAY9zPGNiMS-9">
          <mxGeometry width="50" height="50" relative="1" as="geometry">
            <mxPoint x="185" y="485" as="sourcePoint" />
            <mxPoint x="235" y="435" as="targetPoint" />
          </mxGeometry>
        </mxCell>
        <mxCell id="-ZI4lZYVpN0cs_xHT9L2-8" value="" style="sketch=0;points=[[0,0,0],[0.25,0,0],[0.5,0,0],[0.75,0,0],[1,0,0],[0,1,0],[0.25,1,0],[0.5,1,0],[0.75,1,0],[1,1,0],[0,0.25,0],[0,0.5,0],[0,0.75,0],[1,0.25,0],[1,0.5,0],[1,0.75,0]];outlineConnect=0;fontColor=#232F3E;gradientColor=#60A337;gradientDirection=north;fillColor=#277116;strokeColor=#ffffff;dashed=0;verticalLabelPosition=bottom;verticalAlign=top;align=center;html=1;fontSize=12;fontStyle=0;aspect=fixed;shape=mxgraph.aws4.resourceIcon;resIcon=mxgraph.aws4.efs_standard;" parent="-ZI4lZYVpN0cs_xHT9L2-46" vertex="1">
          <mxGeometry x="406" y="680" width="78" height="78" as="geometry" />
        </mxCell>
        <mxCell id="hgUZep3pFWAY9zPGNiMS-26" value="" style="endArrow=classic;html=1;rounded=0;edgeStyle=orthogonalEdgeStyle;exitX=0;exitY=0.5;exitDx=0;exitDy=0;exitPerimeter=0;entryX=0.529;entryY=0.865;entryDx=0;entryDy=0;entryPerimeter=0;" edge="1" parent="-ZI4lZYVpN0cs_xHT9L2-46" source="-ZI4lZYVpN0cs_xHT9L2-8">
          <mxGeometry width="50" height="50" relative="1" as="geometry">
            <mxPoint x="235" y="775" as="sourcePoint" />
            <mxPoint x="224.86000000000013" y="595.1999999999998" as="targetPoint" />
          </mxGeometry>
        </mxCell>
        <mxCell id="-ZI4lZYVpN0cs_xHT9L2-23" value="bastion" style="text;html=1;strokeColor=none;fillColor=none;align=center;verticalAlign=middle;whiteSpace=wrap;rounded=0;" parent="1" vertex="1">
          <mxGeometry x="715" y="375" width="60" height="30" as="geometry" />
        </mxCell>
        <mxCell id="-ZI4lZYVpN0cs_xHT9L2-44" value="VPC" style="points=[[0,0],[0.25,0],[0.5,0],[0.75,0],[1,0],[1,0.25],[1,0.5],[1,0.75],[1,1],[0.75,1],[0.5,1],[0.25,1],[0,1],[0,0.75],[0,0.5],[0,0.25]];outlineConnect=0;gradientColor=none;html=1;whiteSpace=wrap;fontSize=12;fontStyle=0;container=1;pointerEvents=0;collapsible=0;recursiveResize=0;shape=mxgraph.aws4.group;grIcon=mxgraph.aws4.group_vpc;strokeColor=#248814;fillColor=none;verticalAlign=top;align=left;spacingLeft=30;fontColor=#AAB7B8;dashed=0;" parent="1" vertex="1">
          <mxGeometry x="180" y="120" width="840" height="640" as="geometry" />
        </mxCell>
        <mxCell id="-ZI4lZYVpN0cs_xHT9L2-52" value="AWS Cloud" style="points=[[0,0],[0.25,0],[0.5,0],[0.75,0],[1,0],[1,0.25],[1,0.5],[1,0.75],[1,1],[0.75,1],[0.5,1],[0.25,1],[0,1],[0,0.75],[0,0.5],[0,0.25]];outlineConnect=0;gradientColor=none;html=1;whiteSpace=wrap;fontSize=12;fontStyle=0;container=0;pointerEvents=0;collapsible=0;recursiveResize=0;shape=mxgraph.aws4.group;grIcon=mxgraph.aws4.group_aws_cloud_alt;strokeColor=#232F3E;fillColor=none;verticalAlign=top;align=left;spacingLeft=30;fontColor=#232F3E;dashed=0;" parent="1" vertex="1">
          <mxGeometry x="120" y="-160" width="960" height="960" as="geometry" />
        </mxCell>
        <mxCell id="DMGmZ-S_-NHHy-2OvkoB-3" value="eu-west-2a" style="text;html=1;strokeColor=none;fillColor=none;align=center;verticalAlign=middle;whiteSpace=wrap;rounded=0;" parent="1" vertex="1">
          <mxGeometry x="470" y="155" width="65" height="30" as="geometry" />
        </mxCell>
        <mxCell id="DMGmZ-S_-NHHy-2OvkoB-2" value="eu-west-2" style="text;html=1;strokeColor=none;fillColor=none;align=center;verticalAlign=middle;whiteSpace=wrap;rounded=0;" parent="1" vertex="1">
          <mxGeometry x="170" y="35" width="60" height="30" as="geometry" />
        </mxCell>
        <mxCell id="DMGmZ-S_-NHHy-2OvkoB-4" value="eu-west-2b" style="text;html=1;strokeColor=none;fillColor=none;align=center;verticalAlign=middle;whiteSpace=wrap;rounded=0;" parent="1" vertex="1">
          <mxGeometry x="665" y="155" width="65" height="30" as="geometry" />
        </mxCell>
        <mxCell id="hgUZep3pFWAY9zPGNiMS-1" value="" style="sketch=0;points=[[0,0,0],[0.25,0,0],[0.5,0,0],[0.75,0,0],[1,0,0],[0,1,0],[0.25,1,0],[0.5,1,0],[0.75,1,0],[1,1,0],[0,0.25,0],[0,0.5,0],[0,0.75,0],[1,0.25,0],[1,0.5,0],[1,0.75,0]];outlineConnect=0;fontColor=#232F3E;gradientColor=#945DF2;gradientDirection=north;fillColor=#5A30B5;strokeColor=#ffffff;dashed=0;verticalLabelPosition=bottom;verticalAlign=top;align=center;html=1;fontSize=12;fontStyle=0;aspect=fixed;shape=mxgraph.aws4.resourceIcon;resIcon=mxgraph.aws4.cloudfront;" vertex="1" parent="1">
          <mxGeometry x="545" y="-120" width="78" height="78" as="geometry" />
        </mxCell>
        <mxCell id="PSsWQGHh_uAdmonaR9B--28" value="" style="sketch=0;points=[[0,0,0],[0.25,0,0],[0.5,0,0],[0.75,0,0],[1,0,0],[0,1,0],[0.25,1,0],[0.5,1,0],[0.75,1,0],[1,1,0],[0,0.25,0],[0,0.5,0],[0,0.75,0],[1,0.25,0],[1,0.5,0],[1,0.75,0]];outlineConnect=0;fontColor=#232F3E;gradientColor=#945DF2;gradientDirection=north;fillColor=#5A30B5;strokeColor=#ffffff;dashed=0;verticalLabelPosition=bottom;verticalAlign=top;align=center;html=1;fontSize=12;fontStyle=0;aspect=fixed;shape=mxgraph.aws4.resourceIcon;resIcon=mxgraph.aws4.route_53;" parent="1" vertex="1">
          <mxGeometry x="720" y="-120" width="78" height="78" as="geometry" />
        </mxCell>
        <mxCell id="hgUZep3pFWAY9zPGNiMS-2" value="" style="endArrow=classic;html=1;rounded=0;entryX=1;entryY=0.5;entryDx=0;entryDy=0;entryPerimeter=0;exitX=0;exitY=0.5;exitDx=0;exitDy=0;exitPerimeter=0;" edge="1" parent="1" source="PSsWQGHh_uAdmonaR9B--28" target="hgUZep3pFWAY9zPGNiMS-1">
          <mxGeometry width="50" height="50" relative="1" as="geometry">
            <mxPoint x="505" y="-55" as="sourcePoint" />
            <mxPoint x="555" y="-105" as="targetPoint" />
          </mxGeometry>
        </mxCell>
        <mxCell id="hgUZep3pFWAY9zPGNiMS-5" value="cloudfront" style="text;html=1;strokeColor=none;fillColor=none;align=center;verticalAlign=middle;whiteSpace=wrap;rounded=0;" vertex="1" parent="1">
          <mxGeometry x="554" y="-150" width="60" height="30" as="geometry" />
        </mxCell>
        <mxCell id="hgUZep3pFWAY9zPGNiMS-6" value="route53" style="text;html=1;strokeColor=none;fillColor=none;align=center;verticalAlign=middle;whiteSpace=wrap;rounded=0;" vertex="1" parent="1">
          <mxGeometry x="729" y="-150" width="60" height="30" as="geometry" />
        </mxCell>
        <mxCell id="-ZI4lZYVpN0cs_xHT9L2-14" value="" style="endArrow=classic;html=1;rounded=0;exitX=0.5;exitY=1;exitDx=0;exitDy=0;exitPerimeter=0;entryX=0.5;entryY=0.051;entryDx=0;entryDy=0;entryPerimeter=0;" parent="1" source="hgUZep3pFWAY9zPGNiMS-1" edge="1" target="-ZI4lZYVpN0cs_xHT9L2-3">
          <mxGeometry width="50" height="50" relative="1" as="geometry">
            <mxPoint x="598.8" y="105" as="sourcePoint" />
            <mxPoint x="598.8" y="160" as="targetPoint" />
            <Array as="points" />
          </mxGeometry>
        </mxCell>
        <mxCell id="hgUZep3pFWAY9zPGNiMS-15" value="Private subnet" style="points=[[0,0],[0.25,0],[0.5,0],[0.75,0],[1,0],[1,0.25],[1,0.5],[1,0.75],[1,1],[0.75,1],[0.5,1],[0.25,1],[0,1],[0,0.75],[0,0.5],[0,0.25]];outlineConnect=0;gradientColor=none;html=1;whiteSpace=wrap;fontSize=12;fontStyle=0;container=1;pointerEvents=0;collapsible=0;recursiveResize=0;shape=mxgraph.aws4.group;grIcon=mxgraph.aws4.group_security_group;grStroke=0;strokeColor=#147EBA;fillColor=#E6F2F8;verticalAlign=top;align=left;spacingLeft=30;fontColor=#147EBA;dashed=0;" vertex="1" parent="1">
          <mxGeometry x="680" y="460" width="280" height="148" as="geometry" />
        </mxCell>
        <mxCell id="hgUZep3pFWAY9zPGNiMS-17" value="" style="sketch=0;points=[[0,0,0],[0.25,0,0],[0.5,0,0],[0.75,0,0],[1,0,0],[0,1,0],[0.25,1,0],[0.5,1,0],[0.75,1,0],[1,1,0],[0,0.25,0],[0,0.5,0],[0,0.75,0],[1,0.25,0],[1,0.5,0],[1,0.75,0]];outlineConnect=0;fontColor=#232F3E;gradientColor=#F78E04;gradientDirection=north;fillColor=#D05C17;strokeColor=#ffffff;dashed=0;verticalLabelPosition=bottom;verticalAlign=top;align=center;html=1;fontSize=12;fontStyle=0;aspect=fixed;shape=mxgraph.aws4.resourceIcon;resIcon=mxgraph.aws4.ec2;" vertex="1" parent="hgUZep3pFWAY9zPGNiMS-15">
          <mxGeometry x="116" y="40" width="78" height="78" as="geometry" />
        </mxCell>
        <mxCell id="hgUZep3pFWAY9zPGNiMS-22" value="ec2" style="text;html=1;strokeColor=none;fillColor=none;align=center;verticalAlign=middle;whiteSpace=wrap;rounded=0;" vertex="1" parent="hgUZep3pFWAY9zPGNiMS-15">
          <mxGeometry x="155" y="118" width="60" height="30" as="geometry" />
        </mxCell>
        <mxCell id="hgUZep3pFWAY9zPGNiMS-19" value="" style="endArrow=classic;startArrow=classic;html=1;rounded=0;exitX=1;exitY=0.5;exitDx=0;exitDy=0;exitPerimeter=0;entryX=0;entryY=0.5;entryDx=0;entryDy=0;entryPerimeter=0;" edge="1" parent="1" source="hgUZep3pFWAY9zPGNiMS-16" target="hgUZep3pFWAY9zPGNiMS-17">
          <mxGeometry width="50" height="50" relative="1" as="geometry">
            <mxPoint x="585" y="555" as="sourcePoint" />
            <mxPoint x="635" y="505" as="targetPoint" />
          </mxGeometry>
        </mxCell>
        <mxCell id="hgUZep3pFWAY9zPGNiMS-24" value="" style="endArrow=classic;html=1;rounded=0;edgeStyle=orthogonalEdgeStyle;exitX=0.5;exitY=0;exitDx=0;exitDy=0;exitPerimeter=0;" edge="1" parent="1" source="hgUZep3pFWAY9zPGNiMS-17" target="hgUZep3pFWAY9zPGNiMS-10">
          <mxGeometry width="50" height="50" relative="1" as="geometry">
            <mxPoint x="865" y="455" as="sourcePoint" />
            <mxPoint x="915" y="405" as="targetPoint" />
          </mxGeometry>
        </mxCell>
        <mxCell id="hgUZep3pFWAY9zPGNiMS-27" value="" style="endArrow=classic;html=1;rounded=0;edgeStyle=orthogonalEdgeStyle;exitX=1;exitY=0.5;exitDx=0;exitDy=0;exitPerimeter=0;entryX=0.5;entryY=1;entryDx=0;entryDy=0;entryPerimeter=0;" edge="1" parent="1" source="-ZI4lZYVpN0cs_xHT9L2-8" target="hgUZep3pFWAY9zPGNiMS-17">
          <mxGeometry width="50" height="50" relative="1" as="geometry">
            <mxPoint x="730" y="765" as="sourcePoint" />
            <mxPoint x="820" y="690" as="targetPoint" />
          </mxGeometry>
        </mxCell>
        <mxCell id="hgUZep3pFWAY9zPGNiMS-28" value="Availability Zone" style="fillColor=none;strokeColor=#147EBA;dashed=1;verticalAlign=top;fontStyle=0;fontColor=#147EBA;" vertex="1" parent="1">
          <mxGeometry x="200" y="160" width="340" height="480" as="geometry" />
        </mxCell>
        <mxCell id="hgUZep3pFWAY9zPGNiMS-29" value="EFS" style="text;html=1;strokeColor=none;fillColor=none;align=center;verticalAlign=middle;whiteSpace=wrap;rounded=0;" vertex="1" parent="1">
          <mxGeometry x="570" y="630" width="60" height="30" as="geometry" />
        </mxCell>
        <mxCell id="hgUZep3pFWAY9zPGNiMS-30" value="" style="sketch=0;points=[[0,0,0],[0.25,0,0],[0.5,0,0],[0.75,0,0],[1,0,0],[0,1,0],[0.25,1,0],[0.5,1,0],[0.75,1,0],[1,1,0],[0,0.25,0],[0,0.5,0],[0,0.75,0],[1,0.25,0],[1,0.5,0],[1,0.75,0]];outlineConnect=0;fontColor=#232F3E;gradientColor=#60A337;gradientDirection=north;fillColor=#277116;strokeColor=#ffffff;dashed=0;verticalLabelPosition=bottom;verticalAlign=top;align=center;html=1;fontSize=12;fontStyle=0;aspect=fixed;shape=mxgraph.aws4.resourceIcon;resIcon=mxgraph.aws4.s3;" vertex="1" parent="1">
          <mxGeometry x="680" width="78" height="78" as="geometry" />
        </mxCell>
        <mxCell id="hgUZep3pFWAY9zPGNiMS-31" value="backup" style="text;html=1;strokeColor=none;fillColor=none;align=center;verticalAlign=middle;whiteSpace=wrap;rounded=0;" vertex="1" parent="1">
          <mxGeometry x="685" y="-20" width="60" height="30" as="geometry" />
        </mxCell>
        <mxCell id="hgUZep3pFWAY9zPGNiMS-32" value="" style="endArrow=classic;html=1;rounded=0;edgeStyle=orthogonalEdgeStyle;exitX=1;exitY=0.75;exitDx=0;exitDy=0;exitPerimeter=0;entryX=1;entryY=0.5;entryDx=0;entryDy=0;entryPerimeter=0;" edge="1" parent="1" source="-ZI4lZYVpN0cs_xHT9L2-8" target="hgUZep3pFWAY9zPGNiMS-30">
          <mxGeometry width="50" height="50" relative="1" as="geometry">
            <mxPoint x="915" y="725" as="sourcePoint" />
            <mxPoint x="965" y="675" as="targetPoint" />
            <Array as="points">
              <mxPoint x="1040" y="718" />
              <mxPoint x="1040" y="39" />
            </Array>
          </mxGeometry>
        </mxCell>
        <mxCell id="hgUZep3pFWAY9zPGNiMS-33" value="NAT" style="text;html=1;strokeColor=none;fillColor=none;align=center;verticalAlign=middle;whiteSpace=wrap;rounded=0;" vertex="1" parent="1">
          <mxGeometry x="235" y="344" width="60" height="30" as="geometry" />
        </mxCell>
        <mxCell id="hgUZep3pFWAY9zPGNiMS-34" value="NAT" style="text;html=1;strokeColor=none;fillColor=none;align=center;verticalAlign=middle;whiteSpace=wrap;rounded=0;" vertex="1" parent="1">
          <mxGeometry x="905" y="350" width="60" height="30" as="geometry" />
        </mxCell>
      </root>
    </mxGraphModel>
  </diagram>
</mxfile>
